<?xml version="1.0" encoding="UTF-8"?>
<svg version="1.1" xmlns="http://www.w3.org/2000/svg" width="512" height="512">
<path d="M0 0 C1.01790619 0.00215515 2.03581238 0.0043103 3.08456421 0.00653076 C17.69363523 0.05620146 32.02575853 0.30709809 46.375 3.3125 C47.34985352 3.51117676 48.32470703 3.70985352 49.32910156 3.91455078 C97.7109774 14.03517194 141.69928269 35.9516877 177.375 70.3125 C178.3640332 71.26068604 178.3640332 71.26068604 179.37304688 72.22802734 C188.86130305 81.37247479 197.6012044 90.66984009 205.375 101.3125 C206.23306152 102.46355017 207.09113451 103.61459177 207.94921875 104.765625 C213.98736829 112.95680614 219.34595521 121.47054105 224.375 130.3125 C224.73948242 130.94430176 225.10396484 131.57610352 225.47949219 132.22705078 C247.08534998 169.97532572 256.85198095 212.74189997 256.6875 255.9375 C256.68534485 256.95540619 256.6831897 257.97331238 256.68096924 259.02206421 C256.63129854 273.63113523 256.38040191 287.96325853 253.375 302.3125 C253.07698486 303.77478027 253.07698486 303.77478027 252.77294922 305.26660156 C242.65232806 353.6484774 220.7358123 397.63678269 186.375 433.3125 C185.74287598 433.97185547 185.11075195 434.63121094 184.45947266 435.31054688 C175.31502521 444.79880305 166.01765991 453.5387044 155.375 461.3125 C154.22394983 462.17056152 153.07290823 463.02863451 151.921875 463.88671875 C143.73224019 469.92427396 135.22961724 475.30707302 126.375 480.3125 C125.66778809 480.7146875 124.96057617 481.116875 124.23193359 481.53125 C101.09654164 494.5566741 75.92537591 503.30551461 49.9375 508.625 C49.21860596 508.77235596 48.49971191 508.91971191 47.7590332 509.0715332 C33.08339502 511.86090125 18.55831162 512.66142619 3.64770508 512.62817383 C0.70811513 512.6250221 -2.2304558 512.64854926 -5.16992188 512.67382812 C-18.54306192 512.71848737 -31.43916711 511.51301542 -44.625 509.3125 C-46.33055054 509.03031616 -46.33055054 509.03031616 -48.07055664 508.74243164 C-91.33802759 500.97044532 -132.38793216 480.98345309 -165.625 452.3125 C-166.37007813 451.67828125 -167.11515625 451.0440625 -167.8828125 450.390625 C-181.38779833 438.57948485 -194.05918743 425.82889772 -204.625 411.3125 C-205.48149066 410.16255169 -206.33826433 409.01281411 -207.1953125 407.86328125 C-213.23534209 399.67315742 -218.61867614 391.16870382 -223.625 382.3125 C-224.0271875 381.60528809 -224.429375 380.89807617 -224.84375 380.16943359 C-237.8691741 357.03404164 -246.61801461 331.86287591 -251.9375 305.875 C-252.08485596 305.15610596 -252.23221191 304.43721191 -252.3840332 303.6965332 C-255.35789088 288.05024391 -255.99800362 272.57681954 -255.9375 256.6875 C-255.93534485 255.66959381 -255.9331897 254.65168762 -255.93096924 253.60293579 C-255.88129854 238.99386477 -255.63040191 224.66174147 -252.625 210.3125 C-252.42632324 209.33764648 -252.22764648 208.36279297 -252.02294922 207.35839844 C-241.90232806 158.9765226 -219.9858123 114.98821731 -185.625 79.3125 C-184.99287598 78.65314453 -184.36075195 77.99378906 -183.70947266 77.31445312 C-174.56502521 67.82619695 -165.26765991 59.0862956 -154.625 51.3125 C-153.47394983 50.45443848 -152.32290823 49.59636549 -151.171875 48.73828125 C-142.98224019 42.70072604 -134.47961724 37.31792698 -125.625 32.3125 C-124.91778809 31.9103125 -124.21057617 31.508125 -123.48193359 31.09375 C-100.34654164 18.0683259 -75.17537591 9.31948539 -49.1875 4 C-48.46860596 3.85264404 -47.74971191 3.70528809 -47.0090332 3.5534668 C-31.36274391 0.57960912 -15.88931954 -0.06050362 0 0 Z " fill="#8D60F0" transform="translate(255.625,-0.3125)"/>
<path d="M0 0 C1.63055701 -0.00706891 3.26110747 -0.01581799 4.89164734 -0.02610779 C9.29458744 -0.04850083 13.69716636 -0.0456861 18.10014153 -0.03678632 C21.78546703 -0.03165625 25.47072586 -0.03898519 29.15604448 -0.04625839 C37.85360132 -0.06322483 46.55098256 -0.05972383 55.24853516 -0.04296875 C64.20212788 -0.02604283 73.15523322 -0.04189575 82.10877275 -0.07419163 C89.81610979 -0.1009325 97.52329552 -0.10815164 105.23067427 -0.09967655 C109.82522373 -0.0947614 114.41947997 -0.09688645 119.01399231 -0.11746407 C123.33496512 -0.13589265 127.65523945 -0.12977563 131.97617531 -0.10526466 C133.55551116 -0.1002798 135.13490091 -0.10368577 136.71419334 -0.11641312 C146.70911673 -0.19054789 155.23091883 0.38179526 162.82253265 7.54148006 C169.86173124 15.05223719 171.86595785 22.13409927 171.79101562 32.24047852 C171.7888932 33.32857063 171.7888932 33.32857063 171.78672791 34.43864441 C171.78115868 36.74112176 171.76861199 39.04349961 171.75585938 41.34594727 C171.75084039 42.91300315 171.74627818 44.48006056 171.7421875 46.04711914 C171.73119935 49.87593315 171.71395611 53.70467337 171.69335938 57.53344727 C179.54320509 54.96048849 187.39299773 52.38736785 195.24272346 49.81404305 C198.88802675 48.61903243 202.53334799 47.42407666 206.17871094 46.22924805 C209.6995147 45.07524352 213.22027043 43.92109255 216.7409935 42.76684189 C218.08132101 42.32745062 219.42166555 41.8881113 220.76202774 41.44882584 C222.64559671 40.83150173 224.52909844 40.21397245 226.41259766 39.59643555 C228.01809982 39.0701506 228.01809982 39.0701506 229.65603638 38.53323364 C231.73407688 37.84921137 233.80559613 37.14514123 235.87106323 36.42404175 C240.72672174 34.89180613 244.48090508 35.15716835 249.31835938 36.65844727 C253.0408385 38.72649122 255.61249424 40.83067658 257.69335938 44.53344727 C258.38792087 47.65123583 258.35776323 50.67186892 258.30859375 53.85595703 C258.31414276 54.77539093 258.31969177 55.69482483 258.32540894 56.64212036 C258.33718479 59.67023429 258.31295242 62.69684508 258.28710938 65.72485352 C258.2853978 67.83422274 258.28546443 69.94359408 258.28723145 72.05296326 C258.28557942 76.46878471 258.26690104 80.88409774 258.23535156 85.29980469 C258.19565033 90.95814638 258.19130995 96.61582313 258.19881439 102.27427769 C258.20188453 106.62804753 258.18976234 110.98166806 258.17268372 115.33540154 C258.16565634 117.42178346 258.16252886 119.5081823 258.16337585 121.59457588 C258.16157705 124.5101389 258.14018854 127.42490663 258.11328125 130.34033203 C258.11621185 131.20124954 258.11914246 132.06216705 258.12216187 132.94917297 C258.05534142 137.64462834 257.7061921 140.70741708 254.69335938 144.53344727 C251.26954192 147.70047842 248.45164293 148.84625348 243.88085938 149.09594727 C239.16929148 148.8493759 234.89531197 147.88988576 230.40429688 146.51782227 C229.68262833 146.30136551 228.96095978 146.08490875 228.21742249 145.8618927 C217.13089385 142.49903443 206.13627769 138.83801162 195.13085938 135.22094727 C192.84773312 134.47266581 190.56453049 133.72461734 188.28125 132.97680664 C182.75107146 131.16503341 177.22183628 129.35040585 171.69335938 127.53344727 C171.71692505 128.9622522 171.71692505 128.9622522 171.7409668 130.41992188 C171.79573634 133.99258795 171.82987821 137.56521781 171.8581543 141.13818359 C171.8731348 142.67730982 171.89352647 144.21639414 171.91967773 145.75537109 C172.12492088 158.1544718 171.5230856 168.084815 162.69335938 177.53344727 C156.70154369 182.85050893 150.77978392 184.77851381 142.73712158 184.8008728 C142.061181 184.80540392 141.38524042 184.80993503 140.68881679 184.81460345 C138.43667963 184.82720617 136.18478558 184.82562978 133.93261719 184.82397461 C132.31250703 184.82996252 130.69239972 184.83676867 129.07229614 184.84432983 C124.6795428 184.8619721 120.28686742 184.86668452 115.89408207 184.86796141 C113.14646918 184.86938477 110.39887599 184.87365793 107.65126801 184.87895584 C98.05656175 184.89745152 88.461911 184.90562719 78.8671875 184.90405273 C69.938751 184.90285204 61.0105565 184.92394137 52.08218122 184.95554006 C44.40467359 184.98173857 36.72724482 184.99241851 29.04969287 184.99114192 C24.46963917 184.99063326 19.88980054 184.99626297 15.30979156 185.01749802 C10.99883168 185.03694031 6.68829066 185.03696421 2.37731552 185.02246475 C0.80119842 185.02038283 -0.77494531 185.02504056 -2.351017 185.03718567 C-12.22329276 185.10829196 -20.56921778 184.50284252 -28.89257812 178.74438477 C-29.77816406 177.8355957 -29.77816406 177.8355957 -30.68164062 176.90844727 C-31.59042969 176.02286133 -31.59042969 176.02286133 -32.51757812 175.11938477 C-38.29212411 166.77277027 -38.89117547 158.530546 -38.84008789 148.61352539 C-38.8471604 147.2391213 -38.85591097 145.86472499 -38.86619568 144.49034119 C-38.88854864 140.7857051 -38.88578371 137.08149904 -38.87687421 133.37682152 C-38.87173645 130.27305835 -38.8790792 127.16937403 -38.88634628 124.06561899 C-38.90329992 116.73923144 -38.89982476 109.41305241 -38.88305664 102.08666992 C-38.86613133 94.55086421 -38.88198538 87.01563763 -38.91427952 79.47989511 C-38.94104127 72.9869786 -38.94823399 66.49424163 -38.93976444 60.00127554 C-38.93485536 56.13329293 -38.93694068 52.26565866 -38.95755196 48.39772034 C-38.97601398 44.75958755 -38.96982428 41.12228307 -38.94535255 37.4841938 C-38.93802246 35.52765721 -38.95511729 33.57107576 -38.97317505 31.61460876 C-38.87064591 22.0075098 -36.58187377 14.87288611 -30.11914062 7.65844727 C-21.45770179 -0.19312883 -11.07037079 -0.05073112 0 0 Z " fill="#8E60F0" transform="translate(146.306640625,163.466552734375)"/>
<path d="M0 0 C2.125 1.625 2.125 1.625 3.125 3.625 C3.23395131 6.44132741 3.2823301 9.23330323 3.28613281 12.05029297 C3.29358017 13.35782532 3.29358017 13.35782532 3.30117798 14.69177246 C3.31581693 17.58358542 3.32260436 20.47534353 3.328125 23.3671875 C3.33387487 25.37256879 3.33963262 27.37795005 3.34539795 29.3833313 C3.35591277 33.59165707 3.36175234 37.79996371 3.36523438 42.00830078 C3.37072118 47.40446767 3.3947512 52.80038248 3.42320633 58.19647026 C3.44181661 62.33998354 3.44703744 66.48343591 3.44857025 70.62698746 C3.45160078 72.61653141 3.45964271 74.60607419 3.47275543 76.59557724 C3.48978282 79.3775534 3.48794383 82.15891105 3.48144531 84.94091797 C3.4906601 85.76496124 3.49987488 86.58900452 3.5093689 87.4380188 C3.48521895 90.73315418 3.3678409 93.17375832 1.79022217 96.10525513 C-0.62281051 98.30748021 -2.67934519 98.60760071 -5.8894043 98.89306641 C-11.14949104 98.53927925 -15.67134628 97.0177986 -20.64453125 95.3359375 C-21.67954269 94.99503082 -22.71455414 94.65412415 -23.78092957 94.30288696 C-27.08642016 93.21161003 -30.3869315 92.1060634 -33.6875 91 C-35.86361898 90.2790016 -38.04004882 89.55894072 -40.21679688 88.83984375 C-46.4403824 86.78063061 -52.65785846 84.70359632 -58.875 82.625 C-64.815 80.645 -70.755 78.665 -76.875 76.625 C-76.875 58.145 -76.875 39.665 -76.875 20.625 C-71.265 18.748125 -65.655 16.87125 -59.875 14.9375 C-57.27431641 14.06605347 -57.27431641 14.06605347 -54.62109375 13.17700195 C-46.50033373 10.46219667 -38.36461783 7.81523718 -30.18421936 5.28555298 C-24.49054984 3.52053684 -18.88712607 1.55753146 -13.27734375 -0.45703125 C-8.47273838 -1.75333695 -4.54468415 -2.1735446 0 0 Z " fill="#8E61F0" transform="translate(394.875,207.375)"/>
<path d="M0 0 C1.63055701 -0.00706891 3.26110747 -0.01581799 4.89164734 -0.02610779 C9.29458744 -0.04850083 13.69716636 -0.0456861 18.10014153 -0.03678632 C21.78546703 -0.03165625 25.47072586 -0.03898519 29.15604448 -0.04625839 C37.85360132 -0.06322483 46.55098256 -0.05972383 55.24853516 -0.04296875 C64.20212788 -0.02604283 73.15523322 -0.04189575 82.10877275 -0.07419163 C89.81610979 -0.1009325 97.52329552 -0.10815164 105.23067427 -0.09967655 C109.82522373 -0.0947614 114.41947997 -0.09688645 119.01399231 -0.11746407 C123.33496512 -0.13589265 127.65523945 -0.12977563 131.97617531 -0.10526466 C133.55551116 -0.1002798 135.13490091 -0.10368577 136.71419334 -0.11641312 C146.70911673 -0.19054789 155.23091883 0.38179526 162.82253265 7.54148006 C169.86173124 15.05223719 171.86595785 22.13409927 171.79101562 32.24047852 C171.7888932 33.32857063 171.7888932 33.32857063 171.78672791 34.43864441 C171.78115868 36.74112176 171.76861199 39.04349961 171.75585938 41.34594727 C171.75084039 42.91300315 171.74627818 44.48006056 171.7421875 46.04711914 C171.73119935 49.87593315 171.71395611 53.70467337 171.69335938 57.53344727 C179.54320509 54.96048849 187.39299773 52.38736785 195.24272346 49.81404305 C198.88802675 48.61903243 202.53334799 47.42407666 206.17871094 46.22924805 C209.6995147 45.07524352 213.22027043 43.92109255 216.7409935 42.76684189 C218.08132101 42.32745062 219.42166555 41.8881113 220.76202774 41.44882584 C222.64559671 40.83150173 224.52909844 40.21397245 226.41259766 39.59643555 C228.01809982 39.0701506 228.01809982 39.0701506 229.65603638 38.53323364 C231.73407688 37.84921137 233.80559613 37.14514123 235.87106323 36.42404175 C240.72672174 34.89180613 244.48090508 35.15716835 249.31835938 36.65844727 C253.0408385 38.72649122 255.61249424 40.83067658 257.69335938 44.53344727 C258.38792087 47.65123583 258.35776323 50.67186892 258.30859375 53.85595703 C258.31414276 54.77539093 258.31969177 55.69482483 258.32540894 56.64212036 C258.33718479 59.67023429 258.31295242 62.69684508 258.28710938 65.72485352 C258.2853978 67.83422274 258.28546443 69.94359408 258.28723145 72.05296326 C258.28557942 76.46878471 258.26690104 80.88409774 258.23535156 85.29980469 C258.19565033 90.95814638 258.19130995 96.61582313 258.19881439 102.27427769 C258.20188453 106.62804753 258.18976234 110.98166806 258.17268372 115.33540154 C258.16565634 117.42178346 258.16252886 119.5081823 258.16337585 121.59457588 C258.16157705 124.5101389 258.14018854 127.42490663 258.11328125 130.34033203 C258.11621185 131.20124954 258.11914246 132.06216705 258.12216187 132.94917297 C258.05534142 137.64462834 257.7061921 140.70741708 254.69335938 144.53344727 C251.26954192 147.70047842 248.45164293 148.84625348 243.88085938 149.09594727 C239.16929148 148.8493759 234.89531197 147.88988576 230.40429688 146.51782227 C229.68262833 146.30136551 228.96095978 146.08490875 228.21742249 145.8618927 C217.13089385 142.49903443 206.13627769 138.83801162 195.13085938 135.22094727 C192.84773312 134.47266581 190.56453049 133.72461734 188.28125 132.97680664 C182.75107146 131.16503341 177.22183628 129.35040585 171.69335938 127.53344727 C171.71692505 128.9622522 171.71692505 128.9622522 171.7409668 130.41992188 C171.79573634 133.99258795 171.82987821 137.56521781 171.8581543 141.13818359 C171.8731348 142.67730982 171.89352647 144.21639414 171.91967773 145.75537109 C172.12492088 158.1544718 171.5230856 168.084815 162.69335938 177.53344727 C156.70154369 182.85050893 150.77978392 184.77851381 142.73712158 184.8008728 C142.061181 184.80540392 141.38524042 184.80993503 140.68881679 184.81460345 C138.43667963 184.82720617 136.18478558 184.82562978 133.93261719 184.82397461 C132.31250703 184.82996252 130.69239972 184.83676867 129.07229614 184.84432983 C124.6795428 184.8619721 120.28686742 184.86668452 115.89408207 184.86796141 C113.14646918 184.86938477 110.39887599 184.87365793 107.65126801 184.87895584 C98.05656175 184.89745152 88.461911 184.90562719 78.8671875 184.90405273 C69.938751 184.90285204 61.0105565 184.92394137 52.08218122 184.95554006 C44.40467359 184.98173857 36.72724482 184.99241851 29.04969287 184.99114192 C24.46963917 184.99063326 19.88980054 184.99626297 15.30979156 185.01749802 C10.99883168 185.03694031 6.68829066 185.03696421 2.37731552 185.02246475 C0.80119842 185.02038283 -0.77494531 185.02504056 -2.351017 185.03718567 C-12.22329276 185.10829196 -20.56921778 184.50284252 -28.89257812 178.74438477 C-29.77816406 177.8355957 -29.77816406 177.8355957 -30.68164062 176.90844727 C-31.59042969 176.02286133 -31.59042969 176.02286133 -32.51757812 175.11938477 C-38.29212411 166.77277027 -38.89117547 158.530546 -38.84008789 148.61352539 C-38.8471604 147.2391213 -38.85591097 145.86472499 -38.86619568 144.49034119 C-38.88854864 140.7857051 -38.88578371 137.08149904 -38.87687421 133.37682152 C-38.87173645 130.27305835 -38.8790792 127.16937403 -38.88634628 124.06561899 C-38.90329992 116.73923144 -38.89982476 109.41305241 -38.88305664 102.08666992 C-38.86613133 94.55086421 -38.88198538 87.01563763 -38.91427952 79.47989511 C-38.94104127 72.9869786 -38.94823399 66.49424163 -38.93976444 60.00127554 C-38.93485536 56.13329293 -38.93694068 52.26565866 -38.95755196 48.39772034 C-38.97601398 44.75958755 -38.96982428 41.12228307 -38.94535255 37.4841938 C-38.93802246 35.52765721 -38.95511729 33.57107576 -38.97317505 31.61460876 C-38.87064591 22.0075098 -36.58187377 14.87288611 -30.11914062 7.65844727 C-21.45770179 -0.19312883 -11.07037079 -0.05073112 0 0 Z M-27.18164062 14.47094727 C-27.7359375 15.1193457 -28.29023437 15.76774414 -28.86132812 16.43579102 C-31.72252608 20.58839453 -32.5570479 24.22756549 -32.57406616 29.23051453 C-32.58259613 30.3672612 -32.5911261 31.50400787 -32.59991455 32.67520142 C-32.59900818 33.91321503 -32.59810181 35.15122864 -32.59716797 36.42675781 C-32.60388519 37.73791061 -32.61060242 39.04906342 -32.61752319 40.39994812 C-32.63516543 43.99113677 -32.63987795 47.58223006 -32.64115477 51.17345786 C-32.64257847 53.42071566 -32.64685233 55.66794938 -32.6521492 57.91520119 C-32.67064694 65.76574867 -32.67882055 73.61622832 -32.67724609 81.46679688 C-32.67604629 88.76667249 -32.69711748 96.06625167 -32.72873342 103.36605233 C-32.75495806 109.64652629 -32.76561074 115.92690385 -32.76433527 122.20743209 C-32.76382725 125.95250327 -32.76942083 129.6973112 -32.79069138 133.4423275 C-32.81380529 137.62614269 -32.80451521 141.80930225 -32.79248047 145.99316406 C-32.80371948 147.22105652 -32.8149585 148.44894897 -32.82653809 149.71405029 C-32.76608241 158.00769065 -31.67535158 165.35437045 -26.34179688 171.97094727 C-25.69082031 172.48657227 -25.03984375 173.00219727 -24.36914062 173.53344727 C-23.39654297 174.33782227 -23.39654297 174.33782227 -22.40429688 175.15844727 C-17.84010602 178.15024463 -14.00748796 178.78630932 -8.58454895 178.80760193 C-7.92171345 178.81283861 -7.25887795 178.81807529 -6.57595652 178.82347065 C-4.36218087 178.8384328 -2.14863713 178.83917496 0.06518555 178.83984375 C1.65559273 178.84746795 3.24599624 178.85589589 4.83639526 178.86506653 C9.15275581 178.88699643 13.46904551 178.89580873 17.78545547 178.90089297 C20.48498798 178.90453921 23.18450202 178.91078075 25.88402748 178.91789436 C35.31014443 178.94238642 44.73620638 178.95543963 54.16235352 178.95898438 C62.93461038 178.96261648 71.70651669 178.99248912 80.47866648 179.03438896 C88.02027458 179.06914209 95.56176682 179.08453371 103.10345441 179.08523041 C107.60309952 179.0860217 112.10238766 179.09469156 116.60194969 179.12322807 C120.83827322 179.14949412 125.07394606 179.15156678 129.31031418 179.13557243 C130.85902519 179.13376453 132.40777434 179.14038891 133.95640373 179.15639114 C142.80493822 179.24219762 150.23604309 178.79889341 157.69335938 173.53344727 C159.97896062 171.33676416 159.97896062 171.33676416 161.25585938 168.90844727 C161.71089844 168.15305664 162.1659375 167.39766602 162.63476562 166.61938477 C164.51021822 162.92384348 164.82326611 160.03738905 164.8405304 155.94953918 C164.8476857 154.78740906 164.854841 153.62527893 164.86221313 152.42793274 C164.86490204 151.15153427 164.86759094 149.8751358 164.87036133 148.56005859 C164.87662745 147.20315375 164.88327438 145.84625062 164.89027405 144.48934937 C164.91130262 140.03140454 164.92167662 135.57345943 164.93164062 131.11547852 C164.9356889 129.57932708 164.93980584 128.04317583 164.94399071 126.50702477 C164.96304125 119.2882075 164.97727148 112.06940044 164.98560268 104.85056287 C164.9953692 96.52602826 165.02167379 88.20175996 165.06210357 79.87731916 C165.09230045 73.43811885 165.107075 66.99899471 165.11038369 60.55972499 C165.1127305 56.71630483 165.12164208 52.87316922 165.14684486 49.02982521 C165.17019289 45.41082168 165.17433219 41.79228866 165.16408348 38.17322922 C165.16335514 36.22097992 165.18239988 34.26875416 165.20214844 32.31660461 C165.15536378 24.39164252 164.48023944 18.43325616 158.72851562 12.51000977 C158.07753906 12.06399414 157.4265625 11.61797852 156.75585938 11.15844727 C156.10746094 10.69696289 155.4590625 10.23547852 154.79101562 9.76000977 C150.11449921 7.02551041 146.37772351 6.2813255 140.95780945 6.26602173 C140.29356282 6.26149062 139.62931618 6.2569595 138.94494087 6.25229108 C136.7264875 6.23966424 134.50828017 6.24126631 132.28979492 6.24291992 C130.69614345 6.23693356 129.10249487 6.23012776 127.5088501 6.2225647 C123.18435125 6.20490763 118.85993157 6.20020942 114.53540015 6.19893312 C111.83186315 6.1975107 109.12834623 6.19323937 106.42481422 6.18793869 C96.98803049 6.16943879 87.55130322 6.16126795 78.11450195 6.1628418 C69.32635017 6.16404292 60.53844409 6.14294631 51.75035447 6.11135447 C44.19858704 6.08517716 36.64689979 6.07447512 29.09508735 6.07575262 C24.58774 6.07626186 20.080611 6.07059972 15.57330894 6.04939651 C11.3321321 6.02998976 7.09138134 6.02990615 2.85018921 6.04442978 C1.29742114 6.04651603 -0.25537376 6.04182793 -1.80809593 6.02970886 C-11.86417308 5.95633143 -20.28188152 6.1351139 -27.18164062 14.47094727 Z M229.31835938 45.72094727 C222.54639027 48.19160109 215.80733376 50.43695738 208.86987305 52.39624023 C196.34967033 56.0050131 184.03692052 60.38202536 171.69335938 64.53344727 C171.69335938 83.01344727 171.69335938 101.49344727 171.69335938 120.53344727 C181.17943284 123.70777535 190.665509 126.88100196 200.15948486 130.03140259 C204.21704051 131.37804342 208.27391356 132.72657204 212.328125 134.08325195 C215.88578661 135.27326693 219.44672963 136.4528847 223.01046753 137.62457275 C224.33111973 138.06064955 225.65058556 138.50033732 226.96878052 138.94378662 C228.80731717 139.56155655 230.65065277 140.16498792 232.49414062 140.76782227 C233.52708252 141.11039062 234.56002441 141.45295898 235.62426758 141.8059082 C240.29003866 142.91194574 244.19622243 143.24946928 248.56835938 141.15844727 C250.79000763 139.70584685 250.79000763 139.70584685 251.69335938 137.53344727 C251.80231068 134.71711985 251.85068947 131.92514403 251.85449219 129.1081543 C251.85945709 128.23646606 251.864422 127.36477783 251.86953735 126.4666748 C251.88417631 123.57486184 251.89096373 120.68310373 251.89648438 117.79125977 C251.90223425 115.78587848 251.907992 113.78049721 251.91375732 111.77511597 C251.92427214 107.56679019 251.93011171 103.35848355 251.93359375 99.15014648 C251.93908055 93.7539796 251.96311058 88.35806479 251.9915657 82.96197701 C252.01017598 78.81846372 252.01539682 74.67501136 252.01692963 70.53145981 C252.01996015 68.54191586 252.02800208 66.55237307 252.04111481 64.56287003 C252.05814219 61.78089387 252.05630321 58.99953621 252.04980469 56.2175293 C252.05901947 55.39348602 252.06823425 54.56944275 252.07772827 53.72042847 C252.05357833 50.42529308 251.93620027 47.98468894 250.35858154 45.05319214 C247.91404138 42.82221213 245.84556799 42.54629107 242.59179688 42.27172852 C237.74031125 42.59742945 233.83552168 44.00849305 229.31835938 45.72094727 Z " fill="#FCFBFD" transform="translate(146.306640625,163.466552734375)"/>
<path d="M0 0 C3.75312247 1.15855694 7.13950538 2.88636619 10.60913086 4.6965332 C11.36433517 5.08462158 12.11953949 5.47270996 12.89762878 5.87255859 C15.3478249 7.13425378 17.79305237 8.40524127 20.23803711 9.67700195 C21.92134679 10.54727245 23.60477824 11.41730743 25.28833008 12.28710938 C36.75344654 18.22331716 48.14802325 24.27677664 59.43041992 30.55444336 C63.14756094 32.60905591 66.88760815 34.62148998 70.6262207 36.63671875 C72.80053711 37.86450195 72.80053711 37.86450195 73.80053711 38.86450195 C74.1237814 41.99958216 74.21823676 43.14089997 72.80053711 45.86450195 C69.04012429 48.67730696 64.8493923 50.55616984 60.61303711 52.55200195 C59.37556122 53.15887021 58.13956867 53.76877192 56.9050293 54.3815918 C55.02222801 55.31577318 53.13874048 56.24802756 51.25033569 57.1708374 C45.58576582 59.94047769 40.06239444 62.93029413 34.55053711 65.98950195 C32.78690306 66.95560431 31.022577 67.92044443 29.25756836 68.8840332 C26.40400544 70.44228033 23.55097704 72.00140819 20.70043945 73.56518555 C17.55411213 75.28402584 14.39753837 76.98252362 11.23803711 78.67700195 C10.26769531 79.21147949 9.29735352 79.74595703 8.29760742 80.29663086 C6.93587402 81.02052002 6.93587402 81.02052002 5.54663086 81.7590332 C4.35058228 82.40642456 4.35058228 82.40642456 3.13037109 83.06689453 C0.26679338 84.04722654 -1.35065565 83.81574144 -4.19946289 82.86450195 C-5.70807132 79.8472851 -5.35551568 76.72728588 -5.3605957 73.41723633 C-5.36556061 72.64962479 -5.37052551 71.88201324 -5.37564087 71.09114075 C-5.39027052 68.54683545 -5.39706478 66.00259243 -5.40258789 63.45825195 C-5.40833741 61.69470212 -5.41409516 59.93115232 -5.41986084 58.16760254 C-5.43037224 54.46874703 -5.43621441 50.76991327 -5.43969727 47.07104492 C-5.44519114 42.32260597 -5.46923748 37.57445245 -5.49766922 32.82610321 C-5.51625394 29.18364611 -5.5214989 25.54125845 -5.52303314 21.89875793 C-5.52606819 20.14759251 -5.53412521 18.39642855 -5.54721832 16.64530945 C-5.56419699 14.20057141 -5.56241934 11.75653998 -5.5559082 9.31176758 C-5.56512299 8.58339188 -5.57433777 7.85501617 -5.58383179 7.10456848 C-5.56695557 5.09069824 -5.56695557 5.09069824 -5.19946289 1.86450195 C-2.19946289 -0.13549805 -2.19946289 -0.13549805 0 0 Z " fill="#8E60F0" transform="translate(188.199462890625,214.135498046875)"/>
<path d="M0 0 C4.43228843 1.71783739 8.52881359 3.95778723 12.6875 6.25 C13.88618502 6.8933678 15.08574395 7.53510981 16.28613281 8.17529297 C19.87023734 10.09383774 23.435506 12.04526119 27 14 C28.94893109 15.06042469 30.89812869 16.12035979 32.84765625 17.1796875 C35.53346371 18.64123077 38.21673469 20.10661897 40.89306641 21.58544922 C45.65490718 24.21161274 50.44569938 26.75299367 55.30078125 29.203125 C56.3465332 29.73405762 57.39228516 30.26499023 58.46972656 30.81201172 C60.47491034 31.82536714 62.48571074 32.8277136 64.50292969 33.81689453 C69.90786364 36.55581651 73.64544798 38.8916158 77 44 C77.68125897 48.23894471 77.41678277 50.25561981 75.31713867 54.00561523 C72.83478345 57.21350553 70.93794024 58.55887444 67.36328125 60.41015625 C66.24099121 61.00094971 65.11870117 61.59174316 63.96240234 62.20043945 C62.74589996 62.82138444 61.52926249 63.44206484 60.3125 64.0625 C59.05347226 64.71890374 57.79518055 65.37672102 56.53759766 66.03588867 C53.32126923 67.71730466 50.09619188 69.38107872 46.86785889 71.03930664 C42.90791436 73.07601961 38.95859094 75.13326975 35.00708008 77.1862793 C32.93378821 78.26276204 30.85942015 79.33717481 28.78393555 80.40942383 C21.57440705 84.14335661 14.4506952 88.01030829 7.39013672 92.01879883 C1.88796825 95.13098346 -2.60010481 96.89998526 -9 96 C-13.08060506 93.60486224 -14.61256263 91.44784844 -16 87 C-16.19611564 84.38925387 -16.29385256 81.88521076 -16.29052734 79.27563477 C-16.30060318 78.13319809 -16.30060318 78.13319809 -16.31088257 76.96768188 C-16.32982556 74.45885635 -16.33378463 71.95029878 -16.3359375 69.44140625 C-16.34236717 67.69172558 -16.34909566 65.94204598 -16.35610962 64.19236755 C-16.36807251 60.5282034 -16.37179138 56.86413347 -16.37060547 53.19995117 C-16.37040214 48.51128132 -16.39772246 43.82321667 -16.43214989 39.13469028 C-16.45441531 35.5220819 -16.45844315 31.90961936 -16.45738602 28.29694939 C-16.45974181 26.56862232 -16.46856417 24.84029122 -16.48405075 23.11203194 C-16.50370748 20.69217933 -16.49787521 18.27363466 -16.48583984 15.85375977 C-16.49707886 15.1444783 -16.50831787 14.43519684 -16.51989746 13.704422 C-16.45672624 8.69122043 -15.15499276 5.852653 -12 2 C-7.95204329 -0.69863781 -4.66926541 -0.79137213 0 0 Z M-9 8 C-9.30249068 10.55638912 -9.40956726 12.87211243 -9.38818359 15.43139648 C-9.39344055 16.19740173 -9.39869751 16.96340698 -9.40411377 17.75262451 C-9.4173497 20.29231989 -9.40856244 22.83139166 -9.3984375 25.37109375 C-9.40045742 27.13224915 -9.40336817 28.89340374 -9.40713501 30.65455627 C-9.41156339 34.34929349 -9.40511164 38.0438134 -9.39111328 41.73852539 C-9.37403354 46.477949 -9.38385152 51.21686254 -9.40183067 55.95626736 C-9.41266538 59.59450633 -9.40922341 63.23262417 -9.4014473 66.87086678 C-9.39944377 68.61839928 -9.40190991 70.36594272 -9.40888596 72.11346245 C-9.41649401 74.55567465 -9.40490539 76.99705856 -9.38818359 79.43920898 C-9.39425629 80.16398941 -9.40032898 80.88876984 -9.40658569 81.63551331 C-9.3693675 84.56542692 -9.3220296 86.5362728 -7.62345886 88.98223877 C-5.98419122 90.23058736 -5.98419122 90.23058736 -3.63647461 89.8449707 C-0.84533923 88.95043236 1.58872171 87.84398064 4.18359375 86.48046875 C5.18213379 85.9589624 6.18067383 85.43745605 7.20947266 84.90014648 C8.27472168 84.33497314 9.3399707 83.7697998 10.4375 83.1875 C11.54915527 82.60363525 12.66081055 82.01977051 13.80615234 81.41821289 C21.84293064 77.18258262 29.83857827 72.8717021 37.78173828 68.46289062 C42.61581663 65.79131018 47.48326627 63.24707458 52.44921875 60.828125 C54.0432251 60.0393396 54.0432251 60.0393396 55.66943359 59.23461914 C57.72039119 58.22507135 59.7816944 57.23619989 61.85400391 56.27124023 C66.71831201 54.10090611 66.71831201 54.10090611 69.84912109 50.08837891 C70.22772232 47.95278879 70.22772232 47.95278879 70 45 C63.65273566 40.88715449 57.1063694 37.37830228 50.375 33.9375 C42.02918836 29.6367267 33.73103487 25.2666927 25.5 20.75 C24.15808594 20.01559692 24.15808594 20.01559692 22.7890625 19.26635742 C19.34598279 17.38184091 15.90327521 15.49667963 12.46386719 13.60546875 C10.10530379 12.31203296 7.74106485 11.02964845 5.375 9.75 C4.68212891 9.36682617 3.98925781 8.98365234 3.27539062 8.58886719 C-1.49740344 6.0246319 -4.21030675 4.80687117 -9 8 Z " fill="#F8F6FD" transform="translate(192,208)"/>
</svg>
